<svg width="32" height="30" viewBox="0 0 32 30" fill="none" xmlns="http://www.w3.org/2000/svg">
<path fill-rule="evenodd" clip-rule="evenodd" d="M9.06529 4.66977C12.5586 -0.229368 22.2716 0.452254 27.5115 5.18098C37.395 14.0846 24.5721 36.0242 12.5586 27.2484C12.2603 27.0354 11.9621 26.8224 11.6639 26.5668C7.8724 23.2865 4.80509 18.643 8.0428 6.79983C8.2558 5.99041 8.63919 5.30879 9.06529 4.66977Z" fill="#1AA0E8"/>
<path fill-rule="evenodd" clip-rule="evenodd" d="M9.06518 4.66978C19.1616 0.537464 31.8141 10.4635 21.9732 21.4972C19.6728 24.0533 16.0943 26.3112 12.5584 27.2484C10.0024 27.93 7.44635 27.8874 5.44413 26.7372C0.630198 24.0533 -0.562637 14.5106 3.14366 9.39851C4.84769 7.09804 6.89256 5.5644 9.06518 4.66978Z" fill="#0B63CE"/>
<path d="M21.9733 21.4973C31.8142 10.4635 19.1617 0.537463 9.06521 4.66978C8.6392 5.3088 8.2558 5.99042 8.04279 6.79984C4.80511 18.643 7.87239 23.2865 11.6639 26.5668C11.9621 26.8224 12.2603 27.0354 12.5585 27.2484C16.0944 26.3112 19.6729 24.0533 21.9733 21.4973Z" fill="#134194"/>
</svg>
