<svg width="196" height="132" viewBox="0 0 196 132" fill="none" xmlns="http://www.w3.org/2000/svg">
<rect x="1" y="1" width="158" height="102" rx="3" stroke="#A7A9BC" stroke-width="2" stroke-dasharray="8 8"/>
<rect x="107.971" y="59.9706" width="88" height="72" rx="8" fill="#6B6C7E"/>
<path d="M157.596 77.2206H140.721C138.648 77.2206 136.971 78.8978 136.971 80.9706V110.971C136.971 113.043 138.648 114.721 140.721 114.721H163.221C165.293 114.721 166.971 113.043 166.971 110.971V86.5956L157.596 77.2206ZM151.971 105.346H142.596V103.471H151.971V105.346ZM161.346 99.7206H142.596V97.8456H161.346V99.7206ZM161.346 94.0956H142.596V92.2206H161.346V94.0956Z" fill="white"/>
<path d="M94.823 39.2123L88.4882 39.2123C87.4841 39.261 86.5374 40.1723 86.4622 41.2384L86.4622 47.5732C86.6303 50.3778 90.4745 50.1876 90.5143 47.5732L90.5143 46.0957L101.255 56.8365C103.135 58.7166 105.966 55.8854 104.086 54.0053L93.3455 43.2645L94.823 43.2645C97.5525 43.1804 97.5038 39.2654 94.823 39.2123Z" fill="#6B6C7E"/>
</svg>
